# xmcd CD database file
#
# Track frame offsets:
#	150
#	29708
#	44330
#	62619
#	84313
#	101315
#	121970
#	139750
#	160746
#	180135
#	201051
#	217677
#	231850
#	251923
#	279200
#
# Disc length: 4060 seconds
#
# Revision: 0
# Processed by: cddbd v1.5.2PL0 Copyright (c) Steve Scherf et al.
# Submitted via: CDex 1.70beta2
#
DISCID=c00fda0f
DTITLE=YURI BUENAVENTURA - Salsa Fever  cd2
DYEAR=2012
DGENRE=Salsa
TTITLE0=01 Herencia Africana
TTITLE1=02 Me le fugue a la Candela
TTITLE2=03 Quinto y trompeta
TTITLE3=04 Enamorado
TTITLE4=05 Cuida'o Cuida'o
TTITLE5=06 pienso solo en ti
TTITLE6=07 Descarga Fruko
TTITLE7=08 Que Es Lo Que Tiene Cali
TTITLE8=09 Yo No Sé Mañana
TTITLE9=10 Para Ser Real
TTITLE10=11 Descarga Pampini
TTITLE11=12 Quitate le vida perico
TTITLE12=13 Casino Rueda
TTITLE13=14 Un monton de Estrellas
TTITLE14=15 Ne Me Quitte Pas
EXTD=YEAR: 2012
EXTT0=
EXTT1=
EXTT2=
EXTT3=
EXTT4=
EXTT5=
EXTT6=
EXTT7=
EXTT8=
EXTT9=
EXTT10=
EXTT11=
EXTT12=
EXTT13=
EXTT14=
PLAYORDER=
